#!OML:ASF E:\id_vita\Project 1\Capture day 1\Session 1\Female.ASF
:FULLY-SPECIFIED
:DEGREES
487
root 38.7268 16.5383 1.92652 -162.797 -75.279 178.547
lowerback -7.33868 3.13962 -1.62662
upperback -6.04367 4.01954 -1.03986
thorax -2.18111 1.94781 0.051026
lowerneck 10.5205 2.46931 -3.14575
upperneck -8.67165 3.31941 4.49041
head -4.44367 1.46533 1.66566
rclavicle 6.29449e-014 -1.88845e-014
rhumerus -49.916 -31.579 -62.4539
rradius 23.417
rwrist 23.527
rhand -10.2614 10.2715
rfingers 7.12502
rthumb 15.7319 -19.1091
lclavicle 6.29449e-014 -1.88845e-014
lhumerus -58.0955 34.274 51.1692
lradius 21.731
lwrist -32.2677
lhand -4.64439 22.0459
lfingers 7.12502
lthumb 21.1351 50.9139
rfemur -19.3668 -0.452522 27.6056
rtibia 22.2955
rfoot -17.616 -4.35088
rtoes -6.0945
lfemur -41.9377 4.34935 -16.3468
ltibia 47.8449
lfoot -9.61295 -2.98542
ltoes -2.91728
488
root 38.718 16.532 1.92883 -162.753 -75.1843 178.485
lowerback -7.44218 3.16718 -1.62107
upperback -6.02591 4.05768 -1.04897
thorax -2.10501 1.96588 0.0472262
lowerneck 10.4134 2.48547 -3.20192
upperneck -8.75942 3.35503 4.65819
head -4.45828 1.47461 1.72496
rclavicle 3.97212e-014 -4.17448e-015
rhumerus -50.4501 -32.1736 -61.4157
rradius 23.017
rwrist 23.8626
rhand -10.347 10.296
rfingers 7.12502
rthumb 15.6495 -19.0911
lclavicle 3.97212e-014 -4.17448e-015
lhumerus -60.4701 36.1129 47.0632
lradius 20.2577
lwrist -35.1268
lhand -4.13512 22.8542
lfingers 7.12502
lthumb 21.6242 51.6667
rfemur -19.4088 -0.51641 27.5767
rtibia 22.4759
rfoot -17.7551 -4.32888
rtoes -6.51075
lfemur -41.7984 4.27947 -16.38
ltibia 47.7303
lfoot -9.87741 -2.71243
ltoes -1.96342
489
root 38.7105 16.5298 1.93244 -162.546 -75.1369 178.244
lowerback -7.50252 3.14424 -1.64739
upperback -5.98199 4.03194 -1.04237
thorax -2.02801 1.95397 0.0723291
lowerneck 10.244 2.48881 -3.25289
upperneck -8.95676 3.36458 4.68868
head -4.49256 1.47909 1.7433
rclavicle -1.75901e-014 -7.7526e-015
rhumerus -50.8447 -32.5088 -60.5945
rradius 22.7321
rwrist 24.0177
rhand -10.3381 10.359
rfingers 7.12502
rthumb 15.658 -19.0273
lclavicle -1.75901e-014 -7.7526e-015
lhumerus -63.1064 37.7843 42.848
lradius 19.1058
lwrist -37.8083
lhand -3.57943 23.6768
lfingers 7.12502
lthumb 22.1578 52.427
rfemur -19.4168 -0.668745 27.5055
rtibia 22.5908
rfoot -17.8237 -4.25406
rtoes -6.73429
lfemur -41.6482 4.15986 -16.4535
ltibia 47.6029
lfoot -10.076 -2.50733
ltoes -1.49461
490
root 38.7012 16.5343 1.93563 -162.515 -75.0481 178.207
lowerback -7.73508 3.17659 -1.41903
upperback -5.93012 4.0663 -1.18021
thorax -1.81945 1.95993 -0.17797
lowerneck 10.4926 2.49727 -3.16044
upperneck -9.3536 3.40411 4.76037
head -4.65733 1.48283 1.74469
rclavicle -5.38031e-014 -8.74653e-015
rhumerus -51.332 -32.8001 -60.0599
rradius 22.6132
rwrist 24.0011
rhand -10.3813 10.2981
rfingers 7.12502
rthumb 15.6164 -19.0915
lclavicle -5.38031e-014 -8.74653e-015
lhumerus -65.7128 39.0464 38.5203
lradius 18.0446
lwrist -40.4861
lhand -3.22608 24.7079
lfingers 7.12502
lthumb 22.497 53.4174
rfemur -19.4123 -0.799216 27.4629
rtibia 22.6798
rfoot -17.9494 -4.04308
rtoes -6.65215
lfemur -41.4817 4.12772 -16.5058
ltibia 47.4707
lfoot -10.2362 -2.30046
ltoes -1.94688
491
root 38.6914 16.5357 1.93776 -162.686 -74.9771 178.408
lowerback -8.06563 3.19469 -1.16605
upperback -5.80357 4.08583 -1.2695
thorax -1.481 1.96018 -0.384421
lowerneck 10.4892 2.56196 -3.11594
upperneck -9.59017 3.51557 4.85659
head -4.73531 1.5264 1.75883
rclavicle -2.99823e-014 8.34896e-015
rhumerus -51.6259 -33.2137 -59.5551
rradius 22.4754
rwrist 24.1145
rhand -10.5332 9.96886
rfingers 7.12502
rthumb 15.4702 -19.4321
lclavicle -2.99823e-014 8.34896e-015
lhumerus -68.8861 40.6286 33.2616
lradius 16.885
lwrist -44.1226
lhand -3.12571 25.8053
lfingers 7.12502
lthumb 22.5933 54.5032
rfemur -19.4248 -0.821795 27.4757
rtibia 22.7624
rfoot -18.1476 -3.91606
rtoes -6.52116
lfemur -41.3581 4.09152 -16.4857
ltibia 47.3509
lfoot -10.3873 -2.04219
ltoes -2.22425
492
root 38.6845 16.5299 1.94077 -162.946 -74.9793 178.664
lowerback -7.92856 3.20446 -1.17704
upperback -5.94088 4.08983 -1.1704
thorax -1.70741 1.96285 -0.289536
lowerneck 10.5196 2.58977 -3.15472
upperneck -9.58042 3.54622 4.85412
head -4.73925 1.54289 1.76177
rclavicle 3.07627e-014 2.00773e-014
rhumerus -52.3604 -33.5024 -58.3881
rradius 22.2715
rwrist 24.4645
rhand -10.4508 9.96103
rfingers 7.12502
rthumb 15.5495 -19.4338
lclavicle 3.07627e-014 2.00773e-014
lhumerus -73.3515 41.9277 26.6804
lradius 15.8195
lwrist -48.3774
lhand -2.89791 26.0403
lfingers 7.12502
lthumb 22.8119 54.7114
rfemur -19.4067 -0.769002 27.5016
rtibia 22.8172
rfoot -18.2862 -3.83753
rtoes -5.92415
lfemur -41.2247 3.98866 -16.4252
ltibia 47.252
lfoot -10.5764 -1.70883
ltoes -2.20845
493
root 38.6762 16.5264 1.94402 -163.15 -74.9294 178.797
lowerback -7.85516 3.23303 -0.860505
upperback -5.97007 4.10605 -1.33633
thorax -1.74281 1.95788 -0.639191
lowerneck 10.526 2.60557 -3.06124
upperneck -9.69332 3.60269 5.01648
head -4.77906 1.55433 1.79262
rclavicle -1.41401e-015 5.36719e-015
rhumerus -53.0482 -34.1933 -57.4597
rradius 22.0011
rwrist 25.1783
rhand -10.3209 10.306
rfingers 7.12502
rthumb 15.6746 -19.0791
lclavicle -1.41401e-015 5.36719e-015
lhumerus -76.8555 42.5481 21.1129
lradius 15.1375
lwrist -51.2369
lhand -2.43117 26.6376
lfingers 7.12502
lthumb 23.2598 55.2527
rfemur -19.3027 -0.709432 27.4842
rtibia 22.8505
rfoot -18.3999 -3.73651
rtoes -5.5896
lfemur -41.0252 3.94656 -16.4206
ltibia 47.1828
lfoot -10.8955 -1.35317
ltoes -2.77193
494
root 38.6641 16.5264 1.94693 -163.182 -74.8447 178.81
lowerback -7.94262 3.24912 -0.987249
upperback -5.99315 4.13388 -1.21286
thorax -1.73717 1.97699 -0.436485
lowerneck 10.59 2.61677 -3.15478
upperneck -9.76814 3.59826 4.95409
head -4.81299 1.55832 1.788
rclavicle -1.94279e-014 -3.47873e-015
rhumerus -53.4684 -34.2608 -56.6221
rradius 21.9353
rwrist 25.3379
rhand -10.3597 10.2497
rfingers 7.12502
rthumb 15.6372 -19.1383
lclavicle -1.94279e-014 -3.47873e-015
lhumerus -80.7795 42.9598 15.6418
lradius 14.6716
lwrist -54.0736
lhand -1.82119 27.2251
lfingers 7.12502
lthumb 23.8449 55.7651
rfemur -19.2313 -0.704129 27.4371
rtibia 22.861
rfoot -18.5119 -3.68792
rtoes -5.74529
lfemur -40.9121 3.9493 -16.4653
ltibia 47.1537
lfoot -11.2528 -1.06366
ltoes -3.51275
495
root 38.6526 16.5266 1.9517 -163.481 -74.7821 179.174
lowerback -8.28052 3.27697 -0.856275
upperback -5.89945 4.17018 -1.16626
thorax -1.44791 1.99197 -0.435447
lowerneck 10.5533 2.62838 -3.243
upperneck -9.89868 3.61311 5.0228
head -4.85065 1.56318 1.82282
rclavicle -2.54557e-014 -2.88238e-014
rhumerus -53.7213 -34.6276 -55.9054
rradius 21.8052
rwrist 25.7298
rhand -10.5531 10.0955
rfingers 7.12502
rthumb 15.4509 -19.307
lclavicle -2.54557e-014 -2.88238e-014
lhumerus -85.6461 43.4832 8.49611
lradius 14.0367
lwrist -58.7499
lhand -1.63414 27.4141
lfingers 7.12502
lthumb 24.0243 55.9305
rfemur -19.2149 -0.712331 27.486
rtibia 22.8257
rfoot -18.6457 -3.61163
rtoes -5.49318
lfemur -40.9092 3.96248 -16.4021
ltibia 47.1588
lfoot -11.4864 -0.921553
ltoes -3.17967
496
root 38.6444 16.5268 1.95751 -164.011 -74.7082 179.737
lowerback -8.10828 3.35313 -0.527489
upperback -6.09841 4.23756 -1.2441
thorax -1.71918 2.0108 -0.71046
lowerneck 10.5818 2.58471 -3.24727
upperneck -9.74234 3.57121 5.22997
head -4.80948 1.5306 1.89102
rclavicle -2.5248e-015 6.16232e-015
rhumerus -54.4077 -34.7451 -55.2475
rradius 21.7314
rwrist 26.0166
rhand -10.6792 9.98319
rfingers 7.12502
rthumb 15.3296 -19.4286
lclavicle -2.5248e-015 6.16232e-015
lhumerus -90.1258 43.0416 1.67188
lradius 13.4128
lwrist -63.8325
lhand -1.97461 27.4484
lfingers 7.12502
lthumb 23.6977 56.0075
rfemur -19.1564 -0.687084 27.5884
rtibia 22.7669
rfoot -18.7324 -3.52191
rtoes -5.36445
lfemur -40.8825 3.99796 -16.2841
ltibia 47.188
lfoot -11.6911 -0.849593
ltoes -2.24072
497
root 38.6363 16.5256 1.96224 -164.206 -74.6029 179.879
lowerback -7.98062 3.37863 -0.791134
upperback -6.25419 4.27795 -0.991354
thorax -1.99088 2.04135 -0.316696
lowerneck 10.7686 2.55962 -3.44028
upperneck -9.637 3.48845 5.11241
head -4.80546 1.50482 1.89031
rclavicle 4.31588e-014 9.74045e-015
rhumerus -54.7638 -34.2876 -54.5497
rradius 21.7097
rwrist 25.7793
rhand -10.6301 9.84708
rfingers 7.12502
rthumb 15.3768 -19.5611
lclavicle 4.31588e-014 9.74045e-015
lhumerus -93.2478 42.2719 -2.57196
lradius 13.289
lwrist -65.61
lhand -1.20667 28.0679
lfingers 7.12502
lthumb 24.4341 56.5297
rfemur -19.0591 -0.697286 27.5835
rtibia 22.7261
rfoot -18.6627 -3.3938
rtoes -5.85479
lfemur -40.7667 4.00933 -16.2804
ltibia 47.2151
lfoot -11.9569 -0.72413
ltoes -1.76751
